Coordinates
version=1
nRows=16
nColumns=33
inDegrees=yes

Units are S.I. units (second, meters, Newtons, ...)
Angles are in degrees.

endheader
time	ground_thorax_rot_x	ground_thorax_rot_y	ground_thorax_rot_z	ground_thorax_tx	ground_thorax_ty	ground_thorax_tz	clav_prot_r	clav_elev_r	scapula_abduction_r	scapula_elevation_r	scapula_upward_rot_r	scapula_winging_r	shoulder_elv_r	plane_of_elev_r	axial_rot_r	elbow_flexion_r	pro_sup_r	wrist_flex_r	wrist_dev_r	clav_prot_l	clav_elev_l	scapula_abduction_l	scapula_elevation_l	scapula_upward_rot_l	scapula_winging_l	shoulder_elv_l	plane_of_elev_l	axial_rot_l	elbow_flexion_l	pro_sup_l	wrist_flex_l	wrist_dev_l
      9.17000000	    -41.01127022	    -11.65630708	     12.38229765	   -198.49491324	    827.98100196	    -10.78539686	      4.10342869	    -45.00000000	     32.82001880	    -45.00000000	    -21.08983017	   2051.05871755	    787.67608824	     21.52814417	   -179.99999979	   1444.83613274	    -72.85934976	     19.34377663	      8.79334188	     15.38590965	     38.37567995	    -33.80695814	    -45.00000000	    -45.00000000	  -2076.98023538	  -3530.39905908	     17.31905932	    -51.74211076	   1449.12581990	   -324.27765759	      9.12882230	    -21.69432993
      9.18000000	    -40.95202299	    -11.37342038	     12.15059893	   -199.17972817	    829.06535153	    -10.80955624	      4.25796815	    -45.00000000	     33.24138341	    -45.00000000	    -20.05363902	   2050.64754618	    787.70168109	     21.59115980	   -179.99999979	   1444.93564533	    -72.99912141	     19.28374766	      8.80509756	     14.98435840	     38.38640139	    -33.78706257	    -45.00000000	    -45.00000000	  -2077.14823420	  -3530.33006809	     17.21602658	    -51.83853752	   1449.18184077	   -324.29890852	      9.04667148	    -21.53975780
      9.19000000	    -40.96490816	    -11.13120548	     11.98408225	   -199.66236143	    830.06554488	    -10.80177772	      4.23432555	    -45.00000000	     33.34418797	    -45.00000000	    -19.71252700	   2050.64419269	    787.69083704	     21.56263409	   -179.99999979	   1444.94773611	    -73.15249558	     19.46407193	      8.74721048	     15.16887669	     38.23598668	    -33.81361861	    -45.00000000	    -45.00000000	  -2077.00428184	  -3530.32146634	     17.36019243	    -51.86249536	   1449.20651587	   -324.32200760	      8.97101736	    -21.62935033
      9.20000000	    -40.92883023	    -11.12079217	     12.06830029	   -199.95177387	    830.98865717	    -10.76713430	      4.22823163	    -45.00000000	     33.45616412	    -45.00000000	    -19.49112378	   2050.51566909	    787.78406202	     21.59570653	   -179.99999979	   1445.00244916	    -73.32577870	     19.35839897	      8.76833122	     15.05349868	     38.46075216	    -33.73853378	    -45.00000000	    -45.00000000	  -2077.03890556	  -3530.10093819	     17.15359695	    -51.90234397	   1449.35933503	   -324.31203757	      8.85735267	    -21.50658642
      9.21000000	    -40.92587607	    -10.89840555	     11.91720694	   -200.05946973	    831.83774644	    -10.70957253	      4.28742280	    -45.00000000	     33.58965860	    -45.00000000	    -19.19646595	   2050.52542798	    787.73097291	     21.58657641	   -179.99999979	   1444.95319908	    -73.55982009	     19.61962481	      8.69324068	     15.11829464	     38.09225521	    -33.84210263	    -45.00000000	    -45.00000000	  -2076.86403835	  -3530.19208070	     17.34318970	    -52.06233295	   1449.32661043	   -324.24090082	      8.74817914	    -21.58157846
      9.22000000	    -40.86432204	    -10.92812971	     12.07072437	   -200.00004266	    832.62045922	    -10.63453161	      4.23514929	    -45.00000000	     33.68776073	    -45.00000000	    -18.91303904	   2050.40544373	    787.88512699	     21.59305807	   -179.99999979	   1445.03376943	    -73.77395318	     19.38890323	      8.76651299	     15.07530467	     38.54143801	    -33.73435968	    -45.00000000	    -45.00000000	  -2077.01829116	  -3529.95343669	     17.08106451	    -52.11716462	   1449.51084353	   -324.13408172	      8.63333007	    -21.44424105
      9.23000000	    -40.80911093	    -10.72281153	     11.92449898	   -199.78714524	    833.34979786	    -10.54753532	      4.29529323	    -45.00000000	     33.80858373	    -45.00000000	    -18.59786077	   2050.41294517	    787.85909019	     21.64078660	   -179.99999979	   1444.94783904	    -74.04008959	     19.71844123	      8.68824424	     15.09198085	     38.01135724	    -33.87392638	    -45.00000000	    -45.00000000	  -2076.83802546	  -3530.15102732	     17.31088179	    -52.27219196	   1449.43761509	   -323.95738232	      8.49535699	    -21.50275621
      9.24000000	    -40.74551547	    -10.71879820	     12.01922970	   -199.43750095	    834.02446599	    -10.45518841	      4.24934760	    -45.00000000	     33.93333494	    -45.00000000	    -18.27906343	   2050.34986241	    787.90887243	     21.61766885	   -179.99999979	   1444.98813221	    -74.25308129	     19.50096900	      8.75800044	     15.09072668	     38.51904531	    -33.77281972	    -45.00000000	    -45.00000000	  -2077.01367977	  -3529.90169967	     17.10577421	    -52.32174518	   1449.70521711	   -323.76371634	      8.38644938	    -21.41694170
      9.25000000	    -40.80108576	    -10.55026515	     11.81996855	   -198.96714047	    834.65483242	    -10.36171801	      4.31745821	    -45.00000000	     34.04706845	    -45.00000000	    -17.88282786	   2050.32281429	    787.77218808	     21.63657787	   -179.99999979	   1444.89823987	    -74.48505450	     19.96537937	      8.66106957	     15.09849941	     37.80884027	    -34.00982010	    -45.00000000	    -45.00000000	  -2076.64936425	  -3530.12220658	     17.28990823	    -52.41582452	   1449.68496375	   -323.54122604	      8.20470985	    -21.47355818
      9.26000000	    -40.70259047	    -10.61878969	     12.09093461	   -198.39236095	    835.24728358	    -10.26992311	      4.20842991	    -45.00000000	     34.13895032	    -45.00000000	    -17.54550865	   2050.28363481	    787.95643555	     21.56387027	   -179.99999979	   1445.02430895	    -74.59169157	     19.47357079	      8.81356097	     15.12136352	     38.74284741	    -33.76080512	    -45.00000000	    -45.00000000	  -2077.06303852	  -3529.65350821	     17.07217514	    -52.44317355	   1449.89178502	   -323.28081749	      8.14185945	    -21.36474998
      9.27000000	    -40.59733158	    -10.48455629	     11.99878766	   -197.73120466	    835.80651474	    -10.18115710	      4.19464818	    -45.00000000	     34.21937346	    -45.00000000	    -17.22445846	   2050.31322983	    788.01861879	     21.68565098	   -179.99999979	   1445.06260262	    -74.69535444	     19.79756017	      8.78565466	     15.10970204	     38.19629080	    -33.86420050	    -45.00000000	    -45.00000000	  -2076.89739492	  -3529.93706656	     17.32075408	    -52.47626175	   1449.90999701	   -322.95930711	      7.97127766	    -21.40047673
      9.28000000	    -40.60891732	    -10.23934425	     11.83556017	   -197.00267104	    836.33675892	    -10.09534272	      4.28460182	    -45.00000000	     34.49330797	    -45.00000000	    -16.88388661	   2050.20995205	    787.87136070	     21.63066703	   -179.99999979	   1444.81289257	    -74.72663093	     19.98411445	      8.72959425	     15.12366103	     38.26334876	    -34.18108947	    -45.00000000	    -45.00000000	  -2076.89510017	  -3529.91034522	     17.16091781	    -52.58599748	   1450.09283824	   -322.67010752	      7.86511410	    -21.37619238
      9.29000000	    -40.55016207	    -10.39736366	     12.02348772	   -196.22555714	    836.84197106	    -10.01122748	      4.15570020	    -45.00000000	     34.51829020	    -45.00000000	    -16.48014947	   2050.27898777	    788.05040865	     21.63838348	   -179.99999979	   1445.07480577	    -74.58662224	     19.91540869	      8.82222777	     15.17367999	     38.18205404	    -33.94748876	    -45.00000000	    -45.00000000	  -2076.81508633	  -3529.81275342	     17.33473647	    -52.56597892	   1450.15106649	   -322.37265287	      7.68620378	    -21.36235371
      9.30000000	    -40.55286933	    -10.10120006	     11.79639906	   -195.41816969	    837.32616012	     -9.92619079	      4.28290410	    -45.00000000	     34.75562017	    -45.00000000	    -16.19490270	   2050.17360673	    787.84044574	     21.65016507	   -179.99999979	   1444.83669585	    -74.37322344	     20.21152414	      8.75754762	     15.05026056	     38.24348681	    -34.23188492	    -45.00000000	    -45.00000000	  -2076.93202887	  -3529.74460584	     17.23884844	    -52.60748798	   1450.31249422	   -322.03466287	      7.60429535	    -21.33348754
      9.31000000	    -40.49948092	    -10.40653839	     12.01614907	   -194.60328249	    837.78934683	     -9.83672850	      4.11722647	    -45.00000000	     34.77489150	    -45.00000000	    -15.75957422	   2050.31579964	    788.07359377	     21.61505384	   -179.99999979	   1445.07322580	    -73.96746526	     20.02001522	      8.84613044	     15.26970304	     38.17517038	    -34.07969409	    -45.00000000	    -45.00000000	  -2076.70341482	  -3529.80298779	     17.32733526	    -52.57999286	   1450.34338081	   -321.68837724	      7.42736560	    -21.33623189
      9.32000000	    -40.45119295	    -10.14665085	     11.90561853	   -193.79540957	    838.23582340	     -9.73674654	      4.26530653	    -45.00000000	     34.97228241	    -45.00000000	    -15.53972484	   2050.13678109	    787.92354346	     21.67908146	   -179.99999979	   1444.96168866	    -73.41582776	     20.38327907	      8.78109500	     14.91116686	     38.20558934	    -34.13281887	    -45.00000000	    -45.00000000	  -2077.00646727	  -3529.59826832	     17.32614910	    -52.52649482	   1450.49980953	   -321.26022939	      7.30309319	    -21.24167962
